<?xml version="1.0" encoding="UTF-8" standalone="no"?>
<!DOCTYPE svg PUBLIC "-//W3C//DTD SVG 1.1//EN"
 "http://www.w3.org/Graphics/SVG/1.1/DTD/svg11.dtd">
<!-- Generated by graphviz version 2.43.0 (0)
 -->
<!-- Title: HierarchicalPattern Pages: 1 -->
<svg width="1104pt" height="1216pt"
 viewBox="0.00 0.00 1103.50 1216.00" xmlns="http://www.w3.org/2000/svg" xmlns:xlink="http://www.w3.org/1999/xlink">
<g id="graph0" class="graph" transform="scale(1 1) rotate(0) translate(4 1212)">
<title>HierarchicalPattern</title>
<polygon fill="white" stroke="transparent" points="-4,4 -4,-1212 1099.5,-1212 1099.5,4 -4,4"/>
<g id="clust1" class="cluster">
<title>cluster_Electrostatic</title>
<polygon fill="lightblue" stroke="black" points="115.5,-483 115.5,-649 879.5,-649 879.5,-483 115.5,-483"/>
<text text-anchor="middle" x="497.5" y="-633.8" font-family="Times,serif" font-size="14.00">Electrostatic&#45;Sandbox SDK</text>
</g>
<g id="clust2" class="cluster">
<title>cluster_SDK</title>
<polygon fill="lightgray" stroke="black" points="119.5,-682 119.5,-844 1087.5,-844 1087.5,-682 119.5,-682"/>
<text text-anchor="middle" x="603.5" y="-828.8" font-family="Times,serif" font-size="14.00">RobotExo SDK</text>
</g>
<g id="clust3" class="cluster">
<title>cluster_Hardware</title>
<polygon fill="lightgreen" stroke="black" points="452.5,-8 452.5,-464 768.5,-464 768.5,-8 452.5,-8"/>
<text text-anchor="middle" x="610.5" y="-448.8" font-family="Times,serif" font-size="14.00">Hardware Modules</text>
</g>
<!-- Problem -->
<g id="node1" class="node">
<title>Problem</title>
<polygon fill="lightblue" stroke="black" stroke-width="2" points="326.5,-1208 138.5,-1208 138.5,-1155 326.5,-1155 326.5,-1208"/>
<text text-anchor="middle" x="232.5" y="-1192.8" font-family="Times,serif" font-size="14.00">Problem:</text>
<text text-anchor="middle" x="232.5" y="-1177.8" font-family="Times,serif" font-size="14.00">Medical Conditions</text>
<text text-anchor="middle" x="232.5" y="-1162.8" font-family="Times,serif" font-size="14.00">SCI, Stroke, Syndromes</text>
</g>
<!-- Solution -->
<g id="node2" class="node">
<title>Solution</title>
<polygon fill="lightgreen" stroke="black" stroke-width="2" points="388.5,-1118 76.5,-1118 76.5,-1065 388.5,-1065 388.5,-1118"/>
<text text-anchor="middle" x="232.5" y="-1102.8" font-family="Times,serif" font-size="14.00">Solution:</text>
<text text-anchor="middle" x="232.5" y="-1087.8" font-family="Times,serif" font-size="14.00">Rehabilitation using robotic&#45;assisted aids</text>
<text text-anchor="middle" x="232.5" y="-1072.8" font-family="Times,serif" font-size="14.00">Emulating human joints biomechanics</text>
</g>
<!-- Problem&#45;&gt;Solution -->
<g id="edge7" class="edge">
<title>Problem&#45;&gt;Solution</title>
<path fill="none" stroke="black" d="M232.5,-1154.57C232.5,-1146.34 232.5,-1137.08 232.5,-1128.28"/>
<polygon fill="black" stroke="black" points="236,-1128.24 232.5,-1118.24 229,-1128.24 236,-1128.24"/>
</g>
<!-- Model -->
<g id="node3" class="node">
<title>Model</title>
<polygon fill="none" stroke="black" stroke-dasharray="5,2" points="323.5,-1028 141.5,-1028 141.5,-975 323.5,-975 323.5,-1028"/>
<text text-anchor="middle" x="232.5" y="-1012.8" font-family="Times,serif" font-size="14.00">Model:</text>
<text text-anchor="middle" x="232.5" y="-997.8" font-family="Times,serif" font-size="14.00">1. Mathematical Model</text>
<text text-anchor="middle" x="232.5" y="-982.8" font-family="Times,serif" font-size="14.00">2. Physical Model</text>
</g>
<!-- Solution&#45;&gt;Model -->
<g id="edge8" class="edge">
<title>Solution&#45;&gt;Model</title>
<path fill="none" stroke="black" d="M232.5,-1064.57C232.5,-1056.34 232.5,-1047.08 232.5,-1038.28"/>
<polygon fill="black" stroke="black" points="236,-1038.24 232.5,-1028.24 229,-1038.24 236,-1038.24"/>
</g>
<!-- MathematicalModel -->
<g id="node4" class="node">
<title>MathematicalModel</title>
<polygon fill="none" stroke="black" points="243,-930.5 0,-930.5 0,-892.5 243,-892.5 243,-930.5"/>
<text text-anchor="middle" x="121.5" y="-915.3" font-family="Times,serif" font-size="14.00">Mathematical Model:</text>
<text text-anchor="middle" x="121.5" y="-900.3" font-family="Times,serif" font-size="14.00">Euler angles, Rotation matrices</text>
</g>
<!-- Model&#45;&gt;MathematicalModel -->
<g id="edge9" class="edge">
<title>Model&#45;&gt;MathematicalModel</title>
<path fill="none" stroke="black" d="M200.1,-974.81C184.98,-962.82 167.08,-948.63 152.18,-936.82"/>
<polygon fill="black" stroke="black" points="154.26,-934.01 144.25,-930.54 149.91,-939.49 154.26,-934.01"/>
</g>
<!-- PhysicalModel -->
<g id="node5" class="node">
<title>PhysicalModel</title>
<polygon fill="none" stroke="black" points="485,-938 318,-938 318,-885 485,-885 485,-938"/>
<text text-anchor="middle" x="401.5" y="-922.8" font-family="Times,serif" font-size="14.00">Physical Model:</text>
<text text-anchor="middle" x="401.5" y="-907.8" font-family="Times,serif" font-size="14.00">Joints in equilibrium,</text>
<text text-anchor="middle" x="401.5" y="-892.8" font-family="Times,serif" font-size="14.00">Joints Kinematics</text>
</g>
<!-- Model&#45;&gt;PhysicalModel -->
<g id="edge10" class="edge">
<title>Model&#45;&gt;PhysicalModel</title>
<path fill="none" stroke="black" d="M281.84,-974.81C301.1,-964.78 323.33,-953.2 343.36,-942.77"/>
<polygon fill="black" stroke="black" points="345.14,-945.79 352.39,-938.07 341.91,-939.58 345.14,-945.79"/>
</g>
<!-- PhysicsLibs -->
<g id="node7" class="node">
<title>PhysicsLibs</title>
<polygon fill="none" stroke="black" points="569.5,-618 566.5,-622 545.5,-622 542.5,-618 425.5,-618 425.5,-580 569.5,-580 569.5,-618"/>
<text text-anchor="middle" x="497.5" y="-602.8" font-family="Times,serif" font-size="14.00">Physics Libraries:</text>
<text text-anchor="middle" x="497.5" y="-587.8" font-family="Times,serif" font-size="14.00">Delta&#45;Engine3D</text>
</g>
<!-- MathematicalModel&#45;&gt;PhysicsLibs -->
<g id="edge21" class="edge">
<title>MathematicalModel&#45;&gt;PhysicsLibs</title>
<path fill="none" stroke="black" d="M93.85,-892.29C51.77,-862.2 -20.24,-799.88 11.5,-744 51.7,-673.23 287.58,-629.54 415.34,-610.76"/>
<polygon fill="black" stroke="black" points="416.09,-614.18 425.48,-609.28 415.08,-607.26 416.09,-614.18"/>
<text text-anchor="middle" x="63.5" y="-747.8" font-family="Times,serif" font-size="14.00">Guides Design</text>
</g>
<!-- KinematicsProcessor -->
<g id="node10" class="node">
<title>KinematicsProcessor</title>
<polygon fill="none" stroke="black" points="573,-813 570,-817 549,-817 546,-813 344,-813 344,-777 573,-777 573,-813"/>
<text text-anchor="middle" x="458.5" y="-791.3" font-family="Times,serif" font-size="14.00">Kinematics Processor Module</text>
</g>
<!-- PhysicalModel&#45;&gt;KinematicsProcessor -->
<g id="edge20" class="edge">
<title>PhysicalModel&#45;&gt;KinematicsProcessor</title>
<path fill="none" stroke="black" d="M414.29,-884.8C423.57,-866.16 436.08,-841.03 445.43,-822.26"/>
<polygon fill="black" stroke="black" points="448.67,-823.61 449.99,-813.09 442.4,-820.49 448.67,-823.61"/>
<text text-anchor="middle" x="467" y="-855.8" font-family="Times,serif" font-size="14.00">Feeds into</text>
</g>
<!-- ArithmosFramework -->
<g id="node6" class="node">
<title>ArithmosFramework</title>
<polygon fill="none" stroke="black" points="648.5,-528 645.5,-532 624.5,-532 621.5,-528 364.5,-528 364.5,-492 648.5,-492 648.5,-528"/>
<text text-anchor="middle" x="506.5" y="-506.3" font-family="Times,serif" font-size="14.00">ElectroNetSoft: Arithmos Framework</text>
</g>
<!-- PhysicsLibs&#45;&gt;ArithmosFramework -->
<g id="edge6" class="edge">
<title>PhysicsLibs&#45;&gt;ArithmosFramework</title>
<path fill="none" stroke="black" d="M499.36,-579.97C500.61,-567.96 502.27,-551.93 503.67,-538.36"/>
<polygon fill="black" stroke="black" points="507.18,-538.42 504.73,-528.12 500.22,-537.7 507.18,-538.42"/>
<text text-anchor="middle" x="541.5" y="-550.8" font-family="Times,serif" font-size="14.00">Delegation</text>
</g>
<!-- Baremetal -->
<g id="node8" class="node">
<title>Baremetal</title>
<polygon fill="none" stroke="black" points="346,-529 343,-533 322,-533 319,-529 123,-529 123,-491 346,-491 346,-529"/>
<text text-anchor="middle" x="234.5" y="-513.8" font-family="Times,serif" font-size="14.00">Baremetal:</text>
<text text-anchor="middle" x="234.5" y="-498.8" font-family="Times,serif" font-size="14.00">GPIO, ADC, UART, I2C, PWM</text>
</g>
<!-- PhysicsLibs&#45;&gt;Baremetal -->
<g id="edge19" class="edge">
<title>PhysicsLibs&#45;&gt;Baremetal</title>
<path fill="none" stroke="black" d="M443.01,-579.97C400.95,-566.06 342.68,-546.79 298.43,-532.15"/>
<polygon fill="black" stroke="black" points="299.52,-528.82 288.92,-529 297.32,-535.47 299.52,-528.82"/>
</g>
<!-- LinuxKernel -->
<g id="node9" class="node">
<title>LinuxKernel</title>
<polygon fill="none" stroke="black" points="872,-528 869,-532 848,-532 845,-528 667,-528 667,-492 872,-492 872,-528"/>
<text text-anchor="middle" x="769.5" y="-506.3" font-family="Times,serif" font-size="14.00">Linux Kernel System Calls</text>
</g>
<!-- PhysicsLibs&#45;&gt;LinuxKernel -->
<g id="edge18" class="edge">
<title>PhysicsLibs&#45;&gt;LinuxKernel</title>
<path fill="none" stroke="black" d="M553.86,-579.97C598.31,-565.75 660.29,-545.93 706.4,-531.18"/>
<polygon fill="black" stroke="black" points="707.53,-534.5 715.99,-528.12 705.4,-527.83 707.53,-534.5"/>
</g>
<!-- CPU -->
<g id="node15" class="node">
<title>CPU</title>
<polygon fill="none" stroke="black" points="636,-433 633,-437 612,-437 609,-433 461,-433 461,-397 636,-397 636,-433"/>
<text text-anchor="middle" x="548.5" y="-411.3" font-family="Times,serif" font-size="14.00">CPU/Software Module</text>
</g>
<!-- Baremetal&#45;&gt;CPU -->
<g id="edge14" class="edge">
<title>Baremetal&#45;&gt;CPU</title>
<path fill="none" stroke="black" d="M305.27,-488.04C357.93,-472.44 429.35,-451.29 481.17,-435.94"/>
<polygon fill="black" stroke="black" points="304.01,-484.76 295.41,-490.96 306,-491.47 304.01,-484.76"/>
<polygon fill="black" stroke="black" points="482.34,-439.25 490.93,-433.05 480.35,-432.53 482.34,-439.25"/>
</g>
<!-- JointModule -->
<g id="node16" class="node">
<title>JointModule</title>
<polygon fill="none" stroke="black" points="760.5,-360 757.5,-364 736.5,-364 733.5,-360 480.5,-360 480.5,-322 760.5,-322 760.5,-360"/>
<text text-anchor="middle" x="620.5" y="-344.8" font-family="Times,serif" font-size="14.00">Joint Module</text>
<text text-anchor="middle" x="620.5" y="-329.8" font-family="Times,serif" font-size="14.00">(Motor &amp; Motor Driver Components)</text>
</g>
<!-- Baremetal&#45;&gt;JointModule -->
<g id="edge15" class="edge">
<title>Baremetal&#45;&gt;JointModule</title>
<path fill="none" stroke="black" d="M310.04,-490.99C325.03,-487.92 340.71,-485.06 355.5,-483 387.48,-478.54 623.43,-487.57 645.5,-464 669.4,-438.48 653.13,-396.52 637.9,-369.07"/>
<polygon fill="black" stroke="black" points="640.89,-367.25 632.84,-360.36 634.84,-370.77 640.89,-367.25"/>
<text text-anchor="middle" x="688" y="-411.3" font-family="Times,serif" font-size="14.00">Controls</text>
</g>
<!-- LinuxKernel&#45;&gt;CPU -->
<g id="edge16" class="edge">
<title>LinuxKernel&#45;&gt;CPU</title>
<path fill="none" stroke="black" d="M712.48,-488.47C692.72,-481.09 670.51,-472.48 650.5,-464 631.16,-455.81 610.12,-446.05 592.19,-437.48"/>
<polygon fill="black" stroke="black" points="711.37,-491.79 721.97,-491.99 713.81,-485.23 711.37,-491.79"/>
<polygon fill="black" stroke="black" points="593.66,-434.3 583.13,-433.12 590.62,-440.61 593.66,-434.3"/>
</g>
<!-- LinuxKernel&#45;&gt;JointModule -->
<g id="edge17" class="edge">
<title>LinuxKernel&#45;&gt;JointModule</title>
<path fill="none" stroke="black" d="M768.89,-491.78C767.18,-467.86 760.82,-424.42 737.5,-397 725.6,-383.01 709.35,-372.34 692.75,-364.3"/>
<polygon fill="black" stroke="black" points="694.06,-361.06 683.51,-360.1 691.17,-367.43 694.06,-361.06"/>
<text text-anchor="middle" x="795" y="-411.3" font-family="Times,serif" font-size="14.00">Controls</text>
</g>
<!-- HAL -->
<g id="node14" class="node">
<title>HAL</title>
<polygon fill="none" stroke="black" points="669.5,-726 666.5,-730 645.5,-730 642.5,-726 325.5,-726 325.5,-690 669.5,-690 669.5,-726"/>
<text text-anchor="middle" x="497.5" y="-704.3" font-family="Times,serif" font-size="14.00">Hardware&#45;Software Abstraction Layer (HSAL)</text>
</g>
<!-- KinematicsProcessor&#45;&gt;HAL -->
<g id="edge23" class="edge">
<title>KinematicsProcessor&#45;&gt;HAL</title>
<path fill="none" stroke="black" d="M466.39,-776.8C471.84,-764.93 479.18,-748.93 485.36,-735.45"/>
<polygon fill="black" stroke="black" points="488.63,-736.72 489.62,-726.18 482.27,-733.8 488.63,-736.72"/>
<text text-anchor="middle" x="523.5" y="-747.8" font-family="Times,serif" font-size="14.00">Depends&#45;On</text>
</g>
<!-- SimulatorWiring -->
<g id="node11" class="node">
<title>SimulatorWiring</title>
<polygon fill="none" stroke="black" points="1079,-813 1076,-817 1055,-817 1052,-813 882,-813 882,-777 1079,-777 1079,-813"/>
<text text-anchor="middle" x="980.5" y="-791.3" font-family="Times,serif" font-size="14.00">Simulator Wiring Module</text>
</g>
<!-- SimulatorWiring&#45;&gt;HAL -->
<g id="edge13" class="edge">
<title>SimulatorWiring&#45;&gt;HAL</title>
<path fill="none" stroke="black" d="M894.45,-776.96C843.14,-766.97 776.68,-754.33 717.5,-744 685.48,-738.41 650.76,-732.72 618.58,-727.59"/>
<polygon fill="black" stroke="black" points="619.11,-724.13 608.68,-726.02 618.01,-731.05 619.11,-724.13"/>
</g>
<!-- SensorsModule -->
<g id="node17" class="node">
<title>SensorsModule</title>
<polygon fill="none" stroke="black" points="657,-271 654,-275 633,-275 630,-271 526,-271 526,-235 657,-235 657,-271"/>
<text text-anchor="middle" x="591.5" y="-249.3" font-family="Times,serif" font-size="14.00">Sensors Module</text>
</g>
<!-- SimulatorWiring&#45;&gt;SensorsModule -->
<g id="edge24" class="edge">
<title>SimulatorWiring&#45;&gt;SensorsModule</title>
<path fill="none" stroke="black" d="M972.31,-776.85C965.02,-759.99 955.5,-733.3 955.5,-709 955.5,-709 955.5,-709 955.5,-340 955.5,-281.34 774.2,-262.64 667.5,-256.72"/>
<polygon fill="black" stroke="black" points="667.59,-253.22 657.42,-256.19 667.22,-260.21 667.59,-253.22"/>
<text text-anchor="middle" x="991.5" y="-506.3" font-family="Times,serif" font-size="14.00">Simulates</text>
</g>
<!-- HardwareWiring -->
<g id="node12" class="node">
<title>HardwareWiring</title>
<polygon fill="none" stroke="black" points="325.5,-813 322.5,-817 301.5,-817 298.5,-813 127.5,-813 127.5,-777 325.5,-777 325.5,-813"/>
<text text-anchor="middle" x="226.5" y="-791.3" font-family="Times,serif" font-size="14.00">Hardware Wiring Module</text>
</g>
<!-- HardwareWiring&#45;&gt;HAL -->
<g id="edge12" class="edge">
<title>HardwareWiring&#45;&gt;HAL</title>
<path fill="none" stroke="black" d="M281.01,-776.9C325.03,-763.1 387.04,-743.65 433.42,-729.1"/>
<polygon fill="black" stroke="black" points="434.58,-732.4 443.07,-726.07 432.48,-725.72 434.58,-732.4"/>
</g>
<!-- AIControl -->
<g id="node13" class="node">
<title>AIControl</title>
<polygon fill="none" stroke="black" points="864,-813 861,-817 840,-817 837,-813 591,-813 591,-777 864,-777 864,-813"/>
<text text-anchor="middle" x="727.5" y="-791.3" font-family="Times,serif" font-size="14.00">AI Automated Control Module: Ai3D</text>
</g>
<!-- AIControl&#45;&gt;HAL -->
<g id="edge22" class="edge">
<title>AIControl&#45;&gt;HAL</title>
<path fill="none" stroke="black" d="M681.23,-776.9C644.35,-763.27 592.57,-744.13 553.37,-729.65"/>
<polygon fill="black" stroke="black" points="554.29,-726.26 543.69,-726.07 551.86,-732.82 554.29,-726.26"/>
<text text-anchor="middle" x="669.5" y="-747.8" font-family="Times,serif" font-size="14.00">Depends&#45;On</text>
</g>
<!-- HAL&#45;&gt;PhysicsLibs -->
<g id="edge11" class="edge">
<title>HAL&#45;&gt;PhysicsLibs</title>
<path fill="none" stroke="black" d="M497.5,-679.8C497.5,-664.12 497.5,-644.43 497.5,-628.53"/>
<polygon fill="black" stroke="black" points="494,-679.81 497.5,-689.81 501,-679.81 494,-679.81"/>
<polygon fill="black" stroke="black" points="501,-628.22 497.5,-618.22 494,-628.22 501,-628.22"/>
<text text-anchor="middle" x="564.5" y="-660.8" font-family="Times,serif" font-size="14.00">Abstract Callbacks</text>
</g>
<!-- CPU&#45;&gt;JointModule -->
<!-- JointModule&#45;&gt;SensorsModule -->
<!-- SensorsModule&#45;&gt;CPU -->
<g id="edge25" class="edge">
<title>SensorsModule&#45;&gt;CPU</title>
<path fill="none" stroke="black" d="M535.95,-271.1C511.66,-281.65 485.55,-297.9 471.5,-322 463,-336.59 463.71,-345.02 471.5,-360 478.17,-372.82 489.43,-383.23 501.31,-391.37"/>
<polygon fill="black" stroke="black" points="499.7,-394.49 510.02,-396.89 503.45,-388.58 499.7,-394.49"/>
</g>
<!-- SensorsModule&#45;&gt;JointModule -->
<g id="edge26" class="edge">
<title>SensorsModule&#45;&gt;JointModule</title>
<path fill="none" stroke="black" d="M581.4,-271.18C576.95,-281.07 573.7,-293.57 578.5,-304 580.21,-307.72 582.52,-311.2 585.18,-314.42"/>
<polygon fill="black" stroke="black" points="582.9,-317.1 592.36,-321.86 587.93,-312.24 582.9,-317.1"/>
<text text-anchor="middle" x="620" y="-292.8" font-family="Times,serif" font-size="14.00">Attached&#45;to</text>
</g>
<!-- BatteryModule -->
<g id="node18" class="node">
<title>BatteryModule</title>
<polygon fill="none" stroke="black" points="655.5,-198 652.5,-202 631.5,-202 628.5,-198 527.5,-198 527.5,-162 655.5,-162 655.5,-198"/>
<text text-anchor="middle" x="591.5" y="-176.3" font-family="Times,serif" font-size="14.00">Battery Module</text>
</g>
<!-- SensorsModule&#45;&gt;BatteryModule -->
<!-- CommModule -->
<g id="node19" class="node">
<title>CommModule</title>
<polygon fill="none" stroke="black" points="651.5,-125 648.5,-129 627.5,-129 624.5,-125 531.5,-125 531.5,-89 651.5,-89 651.5,-125"/>
<text text-anchor="middle" x="591.5" y="-103.3" font-family="Times,serif" font-size="14.00">Comm Module</text>
</g>
<!-- BatteryModule&#45;&gt;CommModule -->
<!-- FaultToleranceModule -->
<g id="node20" class="node">
<title>FaultToleranceModule</title>
<polygon fill="none" stroke="red" points="684,-52 681,-56 660,-56 657,-52 499,-52 499,-16 684,-16 684,-52"/>
<text text-anchor="middle" x="591.5" y="-30.3" font-family="Times,serif" font-size="14.00">Fault Tolerance Module</text>
</g>
<!-- CommModule&#45;&gt;FaultToleranceModule -->
</g>
</svg>
